<?xml version="1.0" encoding="UTF-8"?>
<svg width="100px" height="100px" viewBox="0 0 100 100" version="1.1" xmlns="http://www.w3.org/2000/svg" xmlns:xlink="http://www.w3.org/1999/xlink">
    <!-- Generator: Sketch 55.2 (78181) - https://sketchapp.com -->
    <title>analytics</title>
    <desc>Created with Sketch.</desc>
    <g id="analytics" stroke="none" stroke-width="1" fill="none" fill-rule="evenodd">
        <g transform="translate(5.000000, 5.000000)" fill="#D8D8D8" fill-rule="nonzero">
            <path d="M87.9531579,86.0819298 L1.87140351,86.0819298 C0.838421053,86.0819298 0,86.9201754 0,87.9531579 C0,88.9861404 0.838421053,89.8245614 1.87140351,89.8245614 L87.9533333,89.8245614 C88.9863158,89.8245614 89.8247368,88.9861404 89.8247368,87.9531579 C89.8247368,86.9201754 88.9861404,86.0819298 87.9531579,86.0819298 Z" id="Path"></path>
            <path d="M16.8421053,63.6257895 L5.61403509,63.6257895 C4.58105263,63.6257895 3.74263158,64.4642105 3.74263158,65.497193 L3.74263158,87.9533333 C3.74263158,88.9861404 4.58105263,89.8245614 5.61403509,89.8245614 L16.8421053,89.8245614 C17.8750877,89.8245614 18.7135088,88.9861404 18.7135088,87.9531579 L18.7135088,65.4970175 C18.7135088,64.4640351 17.8750877,63.6257895 16.8421053,63.6257895 Z M14.9707018,86.0819298 L7.4854386,86.0819298 L7.4854386,67.3684211 L14.9708772,67.3684211 L14.9708772,86.0819298 L14.9707018,86.0819298 Z" id="Shape"></path>
            <path d="M39.2982456,44.9122807 L28.0701754,44.9122807 C27.037193,44.9122807 26.1987719,45.7507018 26.1987719,46.7836842 L26.1987719,87.9533333 C26.1987719,88.9863158 27.037193,89.8247368 28.0701754,89.8247368 L39.2982456,89.8247368 C40.3312281,89.8247368 41.1696491,88.9863158 41.1696491,87.9533333 L41.1696491,46.7836842 C41.1696491,45.7507018 40.3312281,44.9122807 39.2982456,44.9122807 Z M37.4268421,86.0819298 L29.9414035,86.0819298 L29.9414035,48.6549123 L37.4268421,48.6549123 L37.4268421,86.0819298 Z" id="Shape"></path>
            <path d="M61.754386,52.3977193 L50.5263158,52.3977193 C49.4933333,52.3977193 48.6549123,53.2361404 48.6549123,54.2691228 L48.6549123,87.9533333 C48.6549123,88.9863158 49.4933333,89.8247368 50.5263158,89.8247368 L61.754386,89.8247368 C62.7873684,89.8247368 63.6257895,88.9863158 63.6257895,87.9533333 L63.6257895,54.2691228 C63.6257895,53.2359649 62.7873684,52.3977193 61.754386,52.3977193 Z M59.8829825,86.0819298 L52.3975439,86.0819298 L52.3975439,56.1403509 L59.8829825,56.1403509 L59.8829825,86.0819298 L59.8829825,86.0819298 Z" id="Shape"></path>
            <path d="M84.2105263,29.9415789 L72.9824561,29.9415789 C71.9494737,29.9415789 71.1110526,30.78 71.1110526,31.8129825 L71.1110526,87.9533333 C71.1110526,88.9863158 71.9494737,89.8247368 72.9824561,89.8247368 L84.2105263,89.8247368 C85.2435088,89.8247368 86.0819298,88.9863158 86.0819298,87.9533333 L86.0819298,31.8129825 C86.0819298,30.7798246 85.2435088,29.9415789 84.2105263,29.9415789 Z M82.3391228,86.0819298 L74.8536842,86.0819298 L74.8536842,33.6842105 L82.3391228,33.6842105 L82.3391228,86.0819298 L82.3391228,86.0819298 Z" id="Shape"></path>
            <path d="M11.2280702,33.6842105 C7.09982456,33.6842105 3.74263158,37.0414035 3.74263158,41.1696491 C3.74263158,45.2978947 7.09982456,48.6550877 11.2280702,48.6550877 C15.3563158,48.6550877 18.7135088,45.2978947 18.7135088,41.1696491 C18.7135088,37.0414035 15.3563158,33.6842105 11.2280702,33.6842105 Z M11.2280702,44.9122807 C9.16210526,44.9122807 7.4854386,43.2317544 7.4854386,41.1696491 C7.4854386,39.1073684 9.16210526,37.4270175 11.2280702,37.4270175 C13.2940351,37.4270175 14.9707018,39.1075439 14.9707018,41.1696491 C14.9707018,43.2317544 13.2940351,44.9122807 11.2280702,44.9122807 Z" id="Shape"></path>
            <path d="M33.6842105,14.9707018 C29.5559649,14.9707018 26.1987719,18.3278947 26.1987719,22.4561404 C26.1987719,26.584386 29.5559649,29.9415789 33.6842105,29.9415789 C37.8124561,29.9415789 41.1696491,26.584386 41.1696491,22.4561404 C41.1696491,18.3278947 37.8124561,14.9707018 33.6842105,14.9707018 Z M33.6842105,26.1987719 C31.6182456,26.1987719 29.9415789,24.5182456 29.9415789,22.4561404 C29.9415789,20.3938596 31.6182456,18.7135088 33.6842105,18.7135088 C35.7501754,18.7135088 37.4268421,20.3940351 37.4268421,22.4561404 C37.4268421,24.5184211 35.7501754,26.1987719 33.6842105,26.1987719 Z" id="Shape"></path>
            <path d="M56.1403509,22.4561404 C52.0121053,22.4561404 48.6549123,25.8133333 48.6549123,29.9415789 C48.6549123,34.0698246 52.0121053,37.4270175 56.1403509,37.4270175 C60.2685965,37.4270175 63.6257895,34.0698246 63.6257895,29.9415789 C63.6257895,25.8133333 60.2685965,22.4561404 56.1403509,22.4561404 Z M56.1403509,33.6842105 C54.074386,33.6842105 52.3977193,32.0036842 52.3977193,29.9415789 C52.3977193,27.8792982 54.074386,26.1989474 56.1403509,26.1989474 C58.2063158,26.1989474 59.8829825,27.8794737 59.8829825,29.9415789 C59.8829825,32.0036842 58.2063158,33.6842105 56.1403509,33.6842105 Z" id="Shape"></path>
            <path d="M78.5964912,0 C74.4682456,0 71.1110526,3.35719298 71.1110526,7.4854386 C71.1110526,11.6136842 74.4682456,14.9708772 78.5964912,14.9708772 C82.7247368,14.9708772 86.0819298,11.6136842 86.0819298,7.4854386 C86.0819298,3.35719298 82.7247368,0 78.5964912,0 Z M78.5964912,11.2280702 C76.5305263,11.2280702 74.8538596,9.54754386 74.8538596,7.4854386 C74.8538596,5.42315789 76.5305263,3.74280702 78.5964912,3.74280702 C80.6624561,3.74280702 82.3391228,5.42333333 82.3391228,7.4854386 C82.3391228,9.54754386 80.6624561,11.2280702 78.5964912,11.2280702 Z" id="Shape"></path>
            <path d="M75.9542105,10.1277193 C75.224386,9.39789474 74.0378947,9.39789474 73.3080702,10.1277193 L58.7864912,24.6492982 C58.0566667,25.3791228 58.0566667,26.565614 58.7864912,27.2954386 C59.1533333,27.6584211 59.6322807,27.8419298 60.1114035,27.8419298 C60.5866667,27.8419298 61.0657895,27.6622807 61.4326316,27.2954386 L75.9542105,12.7738596 C76.6840351,12.0440351 76.6840351,10.8575439 75.9542105,10.1277193 Z" id="Path"></path>
            <path d="M51.6154386,25.6224561 L39.5938596,22.1942105 C38.5870175,21.9022807 37.5652632,22.4861404 37.2845614,23.4817544 C37.0001754,24.4773684 37.5764912,25.5103509 38.5682456,25.7947368 L50.5898246,29.2229825 C50.7619298,29.2715789 50.9342105,29.2940351 51.1026316,29.2940351 C51.9185965,29.2940351 52.6670175,28.7587719 52.902807,27.9354386 C53.1873684,26.9436842 52.6110526,25.9068421 51.6154386,25.6224561 Z" id="Path"></path>
            <path d="M30.7649123,24.7878947 C30.1212281,23.9794737 28.9459649,23.8484211 28.1375439,24.4884211 L14.0275439,35.7389474 C13.2191228,36.3864912 13.084386,37.5615789 13.7319298,38.37 C14.1024561,38.8340351 14.6489474,39.0736842 15.1952632,39.0736842 C15.6031579,39.0736842 16.0149123,38.9389474 16.3592982,38.6694737 L30.4692982,27.4189474 C31.2777193,26.7714035 31.4124561,25.5963158 30.7649123,24.7878947 Z" id="Path"></path>
        </g>
    </g>
</svg>