<?xml version="1.0" encoding="UTF-8"?>
<svg width="100px" height="100px" viewBox="0 0 100 100" stroke-width="1" version="1.1" xmlns="http://www.w3.org/2000/svg" xmlns:xlink="http://www.w3.org/1999/xlink">
    <!-- Generator: Sketch 55.2 (78181) - https://sketchapp.com -->
    <title>condomanager</title>
    <desc>Created with Sketch.</desc>
    <g id="condomanager" stroke="none" stroke-width="1" fill="none" fill-rule="evenodd">
        <g>
            <g>
                <path d="M86.0923077,13.8461538 L36.9230769,13.8461538 L36.9230769,8.01092308 C36.9174249,7.61980528 37.0778911,7.2446351 37.3646278,6.97857655 C37.6513645,6.712518 38.0374744,6.58052861 38.4270769,6.61538462 L58.5575385,6.61538462 C59.4255788,6.65446572 60.0982906,7.38862719 60.0615385,8.25676923 L60.0615385,10.9538462 C60.0615385,11.7525349 60.7090036,12.4 61.5076923,12.4 C62.306381,12.4 62.9538462,11.7525349 62.9538462,10.9538462 L62.9538462,8.25676923 C62.9900706,5.79149716 61.0227582,3.76270624 58.5575385,3.72307692 L38.4270769,3.72307692 C37.2677331,3.68150614 36.141896,4.11627879 35.3114088,4.92627705 C34.4809215,5.73627531 34.0181664,6.85090263 34.0307692,8.01092308 L34.0307692,13.8461538 L13.7846154,13.8461538 C10.5898605,13.8461538 8,16.4360144 8,19.6307692 L8,62.2923077 C8,65.4870626 10.5898605,68.0769231 13.7846154,68.0769231 L37.4364615,68.0769231 L37.8775385,65.1846154 L13.7846154,65.1846154 C12.187238,65.1846154 10.8923077,63.8896851 10.8923077,62.2923077 L10.8923077,31.2 L18.8461538,31.2 L18.8461538,35.5384615 C18.8461538,36.3371503 19.493619,36.9846154 20.2923077,36.9846154 L26.0769231,36.9846154 C26.8756118,36.9846154 27.5230769,36.3371503 27.5230769,35.5384615 L27.5230769,31.2 L36.9230769,31.2 C37.7217656,31.2 38.3692308,30.5525349 38.3692308,29.7538462 C38.3692308,28.9551574 37.7217656,28.3076923 36.9230769,28.3076923 L10.8923077,28.3076923 L10.8923077,19.6307692 C10.8923077,18.0333918 12.187238,16.7384615 13.7846154,16.7384615 L86.0923077,16.7384615 C87.6896851,16.7384615 88.9846154,18.0333918 88.9846154,19.6307692 L88.9846154,28.3076923 L62.9538462,28.3076923 C62.1551574,28.3076923 61.5076923,28.9551574 61.5076923,29.7538462 C61.5076923,30.5525349 62.1551574,31.2 62.9538462,31.2 L72.3538462,31.2 L72.3538462,35.5384615 C72.3538462,36.3371503 73.0013113,36.9846154 73.8,36.9846154 L79.5846154,36.9846154 C80.3833041,36.9846154 81.0307692,36.3371503 81.0307692,35.5384615 L81.0307692,31.2 L88.9846154,31.2 L88.9846154,62.2923077 C88.9846154,63.8896851 87.6896851,65.1846154 86.0923077,65.1846154 L62.144,65.1846154 L62.5633846,68.0769231 L86.0923077,68.0769231 C89.2870626,68.0769231 91.8769231,65.4870626 91.8769231,62.2923077 L91.8769231,19.6307692 C91.8769231,16.4360144 89.2870626,13.8461538 86.0923077,13.8461538 Z M24.6307692,34.0923077 L21.7384615,34.0923077 L21.7384615,31.2 L24.6307692,31.2 L24.6307692,34.0923077 Z M78.1384615,34.0923077 L75.2461538,34.0923077 L75.2461538,31.2 L78.1384615,31.2 L78.1384615,34.0923077 Z" id="Shape" fill="#0C5F7C" fill-rule="nonzero"></path>
                <path d="M54.6890769,34.0923077 C55.3211774,34.0407859 55.8459576,33.5834356 55.9833846,32.9643077 L57.8416923,24.3235385 L57.8416923,24.2512308 C57.9838251,23.4486929 57.7671258,22.6241785 57.2487692,21.9952308 C56.7548826,21.4135277 56.0306253,21.0778318 55.2675385,21.0768709 L44.6093846,21.0768709 C43.8461051,21.0720974 43.1191697,21.4025226 42.6209231,21.9807692 C42.1025665,22.609717 41.8858672,23.4342313 42.028,24.2367692 L42.028,24.3090769 L43.8863077,32.9498462 C44.0318511,33.6282917 44.6387519,34.1077434 45.3324615,34.0923077 L45.5710769,34.0923077 L37.6461538,85.7489231 C37.5678279,86.2579514 37.7661273,86.7702247 38.1667692,87.0938462 L49.1358462,95.9587692 C49.6681729,96.3934631 50.4329041,96.3934631 50.9652308,95.9587692 L61.6884615,87.0938462 C62.0764726,86.7712759 62.2682979,86.2697897 62.1946154,85.7706154 L54.6890769,34.0923077 Z M41.2615385,85.8356923 L56.6196923,67.3538462 L57.2632308,71.7573846 L43.814,87.8964615 L41.2615385,85.8356923 Z M44.9203077,23.9692308 L54.9566154,23.9692308 L53.402,31.2 L46.4749231,31.2 L44.9203077,23.9692308 Z M51.7678462,34.0923077 L56.0556923,63.536 L41.2615385,81.2803077 L48.4923077,34.0923077 L51.7678462,34.0923077 Z M50.0541538,92.9652308 L46.0627692,89.7692308 L57.82,75.6330769 L59.2661538,85.3729231 L50.0541538,92.9652308 Z" id="Shape" fill="#0C5F7C" fill-rule="nonzero"></path>
                <rect id="Rectangle" x="0" y="0" width="100" height="100"></rect>
            </g>
        </g>
    </g>
</svg>