<?xml version="1.0" encoding="UTF-8"?>
<svg width="120px" height="120px" viewBox="0 0 120 120" version="1.1" xmlns="http://www.w3.org/2000/svg" xmlns:xlink="http://www.w3.org/1999/xlink">
    <!-- Generator: Sketch 55.2 (78181) - https://sketchapp.com -->
    <title>building</title>
    <desc>Created with Sketch.</desc>
    <g id="Canada-condos" stroke="none" stroke-width="1" fill="none" fill-rule="evenodd">
        <g id="Canada-Condo---signed" transform="translate(-423.000000, -397.000000)" fill="#D8D8D8" fill-rule="nonzero">
            <g id="card" transform="translate(120.000000, 113.000000)">
                <g id="building" transform="translate(303.000000, 284.000000)">
                    <path d="M118,116 L106,116 L106,50 C106,48.8955 105.1045,48 104,48 L76,48 L76,2 C76,0.8955 75.1045,0 74,0 L22,0 C20.8955,0 20,0.8955 20,2 L20,116 L2,116 C0.8955,116 0,116.8955 0,118 C0,119.1045 0.8955,120 2,120 L118,120 C119.1045,120 120,119.1045 120,118 C120,116.8955 119.1045,116 118,116 Z M42,116 L34,116 L34,98 C34,96.8955 34.8955,96 36,96 L40,96 C41.1045,96 42,96.8955 42,98 L42,116 Z M50,50 L50,116 L46,116 L46,98 C46,94.68625 43.31375,92 40,92 L36,92 C32.68625,92 30,94.68625 30,98 L30,116 L24,116 L24,4 L72,4 L72,48 L52,48 C50.8955,48 50,48.8955 50,50 Z M102,116 L54,116 L54,52 L102,52 L102,116 Z" id="Shape"></path>
                    <path d="M64,28 L52,28 C50.8955,28 50,28.8955 50,30 L50,42 C50,43.1045 50.8955,44 52,44 L64,44 C65.1045,44 66,43.1045 66,42 L66,30 C66,28.8955 65.1045,28 64,28 Z M62,40 L54,40 L54,32 L62,32 L62,40 Z" id="Shape"></path>
                    <path d="M64,8 L52,8 C50.8955,8 50,8.8955 50,10 L50,22 C50,23.1045 50.8955,24 52,24 L64,24 C65.1045,24 66,23.1045 66,22 L66,10 C66,8.8955 65.1045,8 64,8 Z M62,20 L54,20 L54,12 L62,12 L62,20 Z" id="Shape"></path>
                    <path d="M44,28 L32,28 C30.8955,28 30,28.8955 30,30 L30,42 C30,43.1045 30.8955,44 32,44 L44,44 C45.1045,44 46,43.1045 46,42 L46,30 C46,28.8955 45.1045,28 44,28 Z M42,40 L34,40 L34,32 L42,32 L42,40 Z" id="Shape"></path>
                    <path d="M44,8 L32,8 C30.8955,8 30,8.8955 30,10 L30,22 C30,23.1045 30.8955,24 32,24 L44,24 C45.1045,24 46,23.1045 46,22 L46,10 C46,8.8955 45.1045,8 44,8 Z M42,20 L34,20 L34,12 L42,12 L42,20 Z" id="Shape"></path>
                    <path d="M44,48 L32,48 C30.8955,48 30,48.8955 30,50 L30,62 C30,63.1045 30.8955,64 32,64 L44,64 C45.1045,64 46,63.1045 46,62 L46,50 C46,48.8955 45.1045,48 44,48 Z M42,60 L34,60 L34,52 L42,52 L42,60 Z" id="Shape"></path>
                    <path d="M44,68 L32,68 C30.8955,68 30,68.8955 30,70 L30,82 C30,83.1045 30.8955,84 32,84 L44,84 C45.1045,84 46,83.1045 46,82 L46,70 C46,68.8955 45.1045,68 44,68 Z M42,80 L34,80 L34,72 L42,72 L42,80 Z" id="Shape"></path>
                    <path d="M82,92 L94,92 C95.1045,92 96,91.1045 96,90 L96,78 C96,76.8955 95.1045,76 94,76 L82,76 C80.8955,76 80,76.8955 80,78 L80,90 C80,91.1045 80.8955,92 82,92 Z M84,80 L92,80 L92,88 L84,88 L84,80 Z" id="Shape"></path>
                    <path d="M82,72 L94,72 C95.1045,72 96,71.1045 96,70 L96,58 C96,56.8955 95.1045,56 94,56 L82,56 C80.8955,56 80,56.8955 80,58 L80,70 C80,71.1045 80.8955,72 82,72 Z M84,60 L92,60 L92,68 L84,68 L84,60 Z" id="Shape"></path>
                    <path d="M82,112 L94,112 C95.1045,112 96,111.1045 96,110 L96,98 C96,96.8955 95.1045,96 94,96 L82,96 C80.8955,96 80,96.8955 80,98 L80,110 C80,111.1045 80.8955,112 82,112 Z M84,100 L92,100 L92,108 L84,108 L84,100 Z" id="Shape"></path>
                    <path d="M62,92 L74,92 C75.1045,92 76,91.1045 76,90 L76,78 C76,76.8955 75.1045,76 74,76 L62,76 C60.8955,76 60,76.8955 60,78 L60,90 C60,91.1045 60.8955,92 62,92 Z M64,80 L72,80 L72,88 L64,88 L64,80 Z" id="Shape"></path>
                    <path d="M62,72 L74,72 C75.1045,72 76,71.1045 76,70 L76,58 C76,56.8955 75.1045,56 74,56 L62,56 C60.8955,56 60,56.8955 60,58 L60,70 C60,71.1045 60.8955,72 62,72 Z M64,60 L72,60 L72,68 L64,68 L64,60 Z" id="Shape"></path>
                    <path d="M62,112 L74,112 C75.1045,112 76,111.1045 76,110 L76,98 C76,96.8955 75.1045,96 74,96 L62,96 C60.8955,96 60,96.8955 60,98 L60,110 C60,111.1045 60.8955,112 62,112 Z M64,100 L72,100 L72,108 L64,108 L64,100 Z" id="Shape"></path>
                </g>
            </g>
        </g>
    </g>
</svg>