<?xml version="1.0" encoding="UTF-8"?>
<svg width="22px" height="22px" viewBox="0 0 22 22" version="1.1" xmlns="http://www.w3.org/2000/svg" xmlns:xlink="http://www.w3.org/1999/xlink">
    <!-- Generator: Sketch 54.1 (76490) - https://sketchapp.com -->
    <title>instagram</title>
    <desc>Created with Sketch.</desc>
    <g id="Page-2" stroke="none" stroke-width="1" fill="none" fill-rule="evenodd">
        <g id="Landing---final" transform="translate(-878.000000, -5459.000000)" fill="#5F5F67">
            <g id="footer" transform="translate(0.000000, 5380.000000)">
                <g id="instagram" transform="translate(878.000000, 79.000000)">
                    <g>
                        <path d="M21.9120523,6.45419103 C21.8606238,5.28775279 21.6719968,4.48583697 21.4017879,3.79096615 C21.1230354,3.05337781 20.6941855,2.39301595 20.1323252,1.84405458 C19.5833638,1.28654971 18.9186465,0.85334432 18.1896016,0.578947368 C17.4907103,0.308738437 16.6929825,0.120111466 15.5265442,0.0686829708 C14.351395,0.0128989903 13.9783291,0 10.9978223,0 C8.01731543,0 7.64424951,0.0128989903 6.47345579,0.0643274854 C5.30701754,0.115755981 4.50510172,0.304550417 3.81039837,0.574591883 C3.07264257,0.85334432 2.4122807,1.28219422 1.86331933,1.84405458 C1.30581446,2.39301595 0.872776538,3.0577333 0.598212121,3.78677813 C0.328003189,4.48583697 0.139376218,5.28339731 0.0879477232,6.44983555 C0.0321637427,7.62498476 0.0192647524,7.99805068 0.0192647524,10.9785575 C0.0192647524,13.9590643 0.0321637427,14.3321302 0.0835922378,15.502924 C0.135020733,16.6693622 0.32381517,17.471278 0.594024101,18.1661489 C0.872776538,18.9037372 1.30581446,19.5640991 1.86331933,20.1130604 C2.4122807,20.6705653 3.07699805,21.1037707 3.80604288,21.3781676 C4.50510172,21.6483766 5.30266206,21.8370035 6.46926777,21.888432 C7.63989403,21.940028 8.01312742,21.9527595 10.9936342,21.9527595 C13.9741411,21.9527595 14.347207,21.940028 15.5180007,21.888432 C16.684439,21.8370035 17.4863548,21.6483766 18.1810581,21.3781676 C19.6564023,20.8077638 20.8228405,19.6413255 21.3932444,18.1661489 C21.6632858,17.46709 21.8520803,16.6693622 21.9035088,15.502924 C21.9549373,14.3321302 21.9678363,13.9590643 21.9678363,10.9785575 C21.9678363,7.99805068 21.9634808,7.62498476 21.9120523,6.45419103 Z M19.9351547,15.417154 C19.8879142,16.4892788 19.7078308,17.0682261 19.5577333,17.454191 C19.1888554,18.4105598 18.4298246,19.1695906 17.4734558,19.5384685 C17.0874909,19.688566 16.5043555,19.8686495 15.4364187,19.9157225 C14.278524,19.9673184 13.9312561,19.98005 11.0021777,19.98005 C8.07309942,19.98005 7.72147599,19.9673184 6.56776927,19.9157225 C5.49564451,19.8686495 4.91669715,19.688566 4.53073223,19.5384685 C4.05480932,19.3625731 3.62160393,19.0838207 3.26998051,18.7192982 C2.90545809,18.3633193 2.62670565,17.9344694 2.45081021,17.4585465 C2.30071274,17.0725816 2.12062927,16.4892788 2.07355627,15.4215095 C2.0219603,14.2636147 2.00922878,13.9161793 2.00922878,10.987101 C2.00922878,8.05802268 2.0219603,7.70639926 2.07355627,6.55286 C2.12062927,5.48073525 2.30071274,4.90178788 2.45081021,4.51582297 C2.62670565,4.03973259 2.90545809,3.60669467 3.27433599,3.25490377 C3.63014744,2.89038136 4.05899734,2.61162892 4.53508772,2.43590094 C4.92105263,2.28580347 5.50435549,2.10572001 6.57212476,2.05847953 C7.73001949,2.00705104 8.0774549,1.99415205 11.0063658,1.99415205 C13.9397996,1.99415205 14.2870675,2.00705104 15.4407742,2.05847953 C16.512899,2.10572001 17.0918464,2.28580347 17.4778113,2.43590094 C17.9537342,2.61162892 18.3869396,2.89038136 18.738563,3.25490377 C19.1030854,3.61088269 19.3818379,4.03973259 19.5577333,4.51582297 C19.7078308,4.90178788 19.8879142,5.48492327 19.9351547,6.55286 C19.9865832,7.71075474 19.9994822,8.05802268 19.9994822,10.987101 C19.9994822,13.9161793 19.9865832,14.2592593 19.9351547,15.417154 Z" id="Shape" fill-rule="nonzero"></path>
                        <path d="M10.9978223,5.33918129 C7.88447244,5.33918129 5.35844604,7.86504023 5.35844604,10.9785575 C5.35844604,14.0920748 7.88447244,16.6179337 10.9978223,16.6179337 C14.1113395,16.6179337 16.6371985,14.0920748 16.6371985,10.9785575 C16.6371985,7.86504023 14.1113395,5.33918129 10.9978223,5.33918129 Z M10.9978223,14.6366807 C8.9780397,14.6366807 7.3396991,12.9985075 7.3396991,10.9785575 C7.3396991,8.95860748 8.9780397,7.32043434 10.9978223,7.32043434 C13.0177723,7.32043434 14.6559454,8.95860748 14.6559454,10.9785575 C14.6559454,12.9985075 13.0177723,14.6366807 10.9978223,14.6366807 L10.9978223,14.6366807 Z" id="Shape" fill-rule="nonzero"></path>
                        <path d="M18.1768701,5.11621283 C18.1768701,5.84324743 17.587369,6.43274854 16.8601669,6.43274854 C16.1331323,6.43274854 15.5436312,5.84324743 15.5436312,5.11621283 C15.5436312,4.38901072 16.1331323,3.79967712 16.8601669,3.79967712 C17.587369,3.79967712 18.1768701,4.38901072 18.1768701,5.11621283 L18.1768701,5.11621283 Z" id="Path" fill-rule="nonzero"></path>
                    </g>
                </g>
            </g>
        </g>
    </g>
</svg>