<?xml version="1.0" encoding="UTF-8"?>
<svg width="100px" height="100px" viewBox="0 0 100 100" version="1.1" xmlns="http://www.w3.org/2000/svg" xmlns:xlink="http://www.w3.org/1999/xlink">
    <!-- Generator: Sketch 55.2 (78181) - https://sketchapp.com -->
    <title>owner</title>
    <desc>Created with Sketch.</desc>
    <g id="owner" stroke="none" stroke-width="1" fill="none" fill-rule="evenodd">
        <g id="owner-copy" transform="translate(4.000000, 7.000000)" fill="#0C5F7C" fill-rule="nonzero">
            <path d="M45.8202846,0.00803343444 C45.371617,0.0484005248 44.9476966,0.235765423 44.6116199,0.542240694 L0.707661016,40.0730116 C0.0572004823,40.659565 -0.171357818,41.5956956 0.133216075,42.4258269 C0.437789967,43.2559583 1.21223465,43.8076684 2.07965963,43.8124624 L9.39698569,43.8124624 L9.33165546,83.3097786 C9.32294809,83.8822458 9.53935706,84.4343431 9.93237414,84.8423177 C10.3253912,85.2502922 10.8621441,85.480009 11.4223192,85.480009 L80.5449212,85.480009 C81.1050964,85.480009 81.6418496,85.2502926 82.0348669,84.8423181 C82.4278842,84.4343435 82.6442933,83.882246 82.6355859,83.3097786 L82.5702557,43.8124624 L89.8875819,43.8124624 C90.7609874,43.8216213 91.5479342,43.2749169 91.8609934,42.4415022 C92.1740525,41.6080874 91.9472511,40.6635931 91.2922478,40.0730116 L82.5702557,32.1601815 L82.5702557,10.692029 C82.5701392,9.51195727 81.6341846,8.55535012 80.4795909,8.55523206 L70.0262671,8.55523206 C68.8716738,8.55535071 67.9357199,9.51195769 67.9356034,10.692029 L67.9356034,18.8051923 L47.3556225,0.508850069 C46.9298838,0.138929578 46.3769837,-0.0414232329 45.8202899,0.00803343444 L45.8202846,0.00803343444 Z M45.9832631,4.041058 L69.1467478,24.9028329 C69.7770329,25.4717551 70.6688324,25.6071661 71.4296349,25.2494669 C72.1904374,24.8917677 72.6807177,24.1065576 72.6846866,23.2394344 L72.6846866,12.1847752 L79.0930286,12.1847752 L79.0930286,33.2544722 C79.0968243,33.8753117 79.3510547,34.4660818 79.7939415,34.8832245 L85.234356,39.9080665 L81.2291426,39.9080665 C80.049424,39.9081891 79.0931123,40.9011278 79.0930286,42.1259942 L79.1597791,83.156441 L72.6846834,83.156441 L72.6846834,78.8245468 C72.6846834,77.1176296 72.0321771,75.4454253 70.915714,74.3888468 C69.7992519,73.3321573 68.472471,72.8039235 67.0106316,72.3096262 C64.1179142,71.3313457 60.3828773,70.4916946 55.562395,68.1857871 C54.9868007,67.7436145 54.5082654,67.4641375 54.2607012,67.1114641 C53.9746228,66.7041152 53.6045717,65.5578157 53.526412,63.2649948 C58.5255417,58.1673113 60.8215898,50.6105625 60.034884,43.8239281 C59.6187688,40.2343893 58.312813,36.8434787 55.962917,34.2594472 C53.613021,31.6754158 50.2149088,30.0362385 46.0500135,29.9276861 C46.0055219,29.926242 45.9609978,29.926242 45.9165062,29.9276861 C41.7516109,30.0362607 38.3534987,31.6754158 36.0036027,34.2594472 C33.6537057,36.8434787 32.3477499,40.2343893 31.9316346,43.8239281 C31.1449288,50.6105625 33.440978,58.1673113 38.4401077,63.2649948 C38.3619491,65.5578157 37.9918958,66.7041152 37.7058185,67.1114641 C37.4582543,67.4641375 36.97972,67.7436145 36.4041236,68.1857871 C31.5836414,70.4916946 27.8486045,71.3313457 24.9558881,72.3096262 C23.4940477,72.8039235 22.1672667,73.3321573 21.0508046,74.3888468 C19.9343426,75.4454253 19.2818353,77.1176296 19.2818353,78.8245468 L19.2818353,83.156441 L12.8067396,83.156441 L12.87349,42.1259942 C12.8734064,40.9011278 11.9170946,39.9081891 10.737376,39.9080665 L6.76554,39.9080665 L45.9832566,4.041058 L45.9832631,4.041058 Z M45.9832625,33.596874 C49.2679268,33.6949955 51.5182866,34.8027315 53.1654267,36.5283793 C54.8256675,38.2677575 55.8897058,40.7381135 56.233536,43.5639919 C56.9211962,49.2157486 54.6432337,56.0798417 50.0973174,59.9804214 C49.6217546,60.3893754 49.3431441,60.9781549 49.3302901,61.6013584 C49.3050841,65.0999598 49.9474986,67.3284998 51.0386688,68.8093736 C52.1298391,70.2903577 53.4699493,70.8978503 53.4094806,70.8442091 C53.5771801,70.9858099 53.7651681,71.1020444 53.9673184,71.1891245 C59.5115612,73.7381875 63.93942,74.7156503 66.5884037,75.5690539 C67.9128949,75.995866 68.7226943,76.3966302 69.0289453,76.6726729 C69.3351952,76.9489364 69.412459,77.0239899 69.412459,77.845275 L69.412459,82.156442 L22.554066,82.156442 L22.554066,77.845275 C22.554066,77.0239899 22.6313242,76.9489364 22.9375797,76.6726729 C23.2438307,76.3966302 24.0536289,75.995866 25.3781213,75.5690539 C28.0271039,74.7156503 32.4549627,73.7381875 37.9992055,71.1891245 C38.2013558,71.1020444 38.3893438,70.9858099 38.5570432,70.8442091 C38.4965779,70.8982918 39.8366837,70.2903577 40.9278551,68.8093736 C42.0190264,67.3284998 42.6614398,65.0999598 42.6362338,61.6013584 C42.6233798,60.9781549 42.3447693,60.3893754 41.8692065,59.9804214 C37.3232902,56.0798417 35.0453288,49.2157486 35.732989,43.5639919 C36.0768192,40.7381135 37.1408575,38.2677575 38.8010983,36.5283793 C40.4482373,34.8027315 42.6985971,33.6950287 45.9832625,33.596874 L45.9832625,33.596874 Z" id="Shape"></path>
        </g>
    </g>
</svg>