<?xml version="1.0" encoding="UTF-8"?>
<svg width="100px" height="100px" viewBox="0 0 100 100" version="1.1" xmlns="http://www.w3.org/2000/svg" xmlns:xlink="http://www.w3.org/1999/xlink">
    <!-- Generator: Sketch 55.2 (78181) - https://sketchapp.com -->
    <title>provider</title>
    <desc>Created with Sketch.</desc>
    <g id="provider" stroke="none" stroke-width="1" fill="none" fill-rule="evenodd">
        <g id="service-provider" transform="translate(4.000000, 8.000000)" fill="#0C5F7C" fill-rule="nonzero">
            <path d="M41.7483077,38.292 L28.9353846,25.4935385 L32.652,21.7769231 L45.4504615,34.5898462 L47.5618462,32.4784615 L34.1126154,19.0292308 L38.0461538,15.168 L38.1329231,15.0667692 L38.2196923,14.98 L45.2190769,7.98061538 C45.501875,7.70803963 45.6616375,7.33215974 45.6616375,6.93938462 C45.6616375,6.54660949 45.501875,6.1707296 45.2190769,5.89815385 L45.1467692,5.81138462 C45.0829443,5.74033194 45.0153604,5.672748 44.9443077,5.60892308 C41.7514491,2.23682472 37.3774622,0.231216986 32.7387692,0.0123076923 C30.1791098,-0.0661666555 27.6964458,0.893518569 25.8550769,2.67323077 L25.7393846,2.78892308 C25.7393846,2.78892308 25.7393846,2.78892308 25.7393846,2.78892308 L9.83169231,18.6966154 C9.54429697,18.9696405 9.38157528,19.3486696 9.38157528,19.7450769 C9.38157528,20.1414843 9.54429697,20.5205133 9.83169231,20.7935385 L12.1889231,23.1507692 L10.2076923,25.132 L7.85046154,22.7747692 C7.57743642,22.4873739 7.19840736,22.3246522 6.802,22.3246522 C6.40559264,22.3246522 6.02656358,22.4873739 5.75353846,22.7747692 L0.88,27.6483077 C0.587948766,27.9217345 0.422215871,28.3039298 0.422215871,28.704 C0.422215871,29.1040702 0.587948766,29.4862655 0.88,29.7596923 L11.0898462,39.9550769 C11.3628713,40.2424723 11.7419003,40.4051939 12.1383077,40.4051939 C12.534715,40.4051939 12.9137441,40.2424723 13.1867692,39.9550769 L18.0603077,35.1538462 C18.3523589,34.8804193 18.5180918,34.498224 18.5180918,34.0981538 C18.5180918,33.6980837 18.3523589,33.3158884 18.0603077,33.0424615 L15.7030769,30.6996923 L17.6409231,28.7618462 L19.9981538,31.1046154 C20.271179,31.3920107 20.650208,31.5547324 21.0466154,31.5547324 C21.4430227,31.5547324 21.8220518,31.3920107 22.0950769,31.1046154 L26.1876923,27.012 L39.6369231,40.4612308 L41.7483077,38.292 Z M32.7387692,2.99138462 C36.1938677,3.16440257 39.472477,4.57025381 41.9796923,6.95384615 L37.1061538,11.8273846 L29.1523077,3.87353846 C30.2512735,3.27397953 31.4870744,2.97001239 32.7387692,2.99138462 L32.7387692,2.99138462 Z M12.1310769,36.788 L4.04707692,28.704 L6.79476923,25.9418462 L14.8932308,34.0403077 L12.1310769,36.788 Z M13.7073846,28.4147692 L12.4203077,27.1276923 L14.2424615,25.3055385 L15.544,26.5926154 L13.7073846,28.4147692 Z M21.0538462,27.9230769 L12.9553846,19.8390769 L26.7227692,6.05723077 L34.8212308,14.1556923 L21.0538462,27.9230769 Z" id="Shape"></path>
            <path d="M91.3658462,76.2824615 L60.6929231,45.6095385 L58.5815385,47.7209231 L88.1987692,77.3381538 L84.4966154,81.0547692 L54.8793846,51.4230769 L52.768,53.5344615 L83.4409231,84.2073846 C83.7159871,84.4959418 84.0979684,84.658153 84.4966154,84.6557199 C84.8952624,84.658153 85.2772436,84.4959418 85.5523077,84.2073846 L91.3369231,78.4227692 C91.6422077,78.1527844 91.8194029,77.7665192 91.825042,77.3590144 C91.8304165,76.9515095 91.6637237,76.5605972 91.3658462,76.2824615 Z" id="Path"></path>
            <path d="M92.2190769,9.528 C92.0563155,9.04294031 91.6493661,8.67998549 91.1489231,8.57353846 C90.629079,8.42801992 90.0714617,8.58415276 89.7027692,8.97846154 L83.6723077,14.9944615 L78.0323077,9.35446154 L84.1061538,3.33846154 C84.4934688,2.98702683 84.6608599,2.45385717 84.5439176,1.9441085 C84.4269752,1.43435984 84.043923,1.02746836 83.5421538,0.88 C78.3162403,-0.94129285 72.508168,0.45273718 68.6782201,4.44758127 C64.8482722,8.44242535 63.7001647,14.3040696 65.74,19.4486154 L27.7061538,57.4969231 C22.4554934,55.3945215 16.4568359,56.6295393 12.4636923,60.6350769 C8.63450932,64.4803752 7.33729732,70.1746304 9.12307692,75.2990769 C9.27414103,75.7985579 9.68257689,76.1779181 10.1918346,76.2917522 C10.7010923,76.4055863 11.2321808,76.2362373 11.5815385,75.8486154 L17.5975385,69.8615385 L23.252,75.5015385 L17.2215385,81.5030769 C16.8342235,81.8545116 16.6668324,82.3876813 16.7837747,82.89743 C16.9007171,83.4071786 17.2837693,83.8140701 17.7855385,83.9615385 C19.2873758,84.4850588 20.8661502,84.7538903 22.4566154,84.7569231 L22.4566154,84.7569231 C27.1449897,84.7543477 31.5273928,82.4286233 34.1573716,78.5473772 C36.7873503,74.666131 37.3230629,69.7338431 35.5876923,65.3784615 L73.636,27.3301538 C75.2992261,28.0026726 77.0770349,28.3464478 78.8710769,28.3424615 L78.8710769,28.3424615 C82.6233925,28.3526778 86.2230555,26.8575935 88.864,24.192 C92.6919668,20.3463583 93.9940022,14.6555657 92.2190769,9.528 Z M30.3381538,78.5384615 C28.2518369,80.6351933 25.4144824,81.8117843 22.4566154,81.8067852 L22.4566154,81.8067852 C22.0506944,81.8042922 21.6451947,81.7801553 21.2418462,81.7344615 L26.4769231,76.5283077 C26.7643184,76.2552826 26.9270401,75.8762535 26.9270401,75.4798462 C26.9270401,75.0834388 26.7643184,74.7044097 26.4769231,74.4313846 L18.7110769,66.6655385 C18.4376501,66.3734872 18.0554548,66.2077543 17.6553846,66.2077543 C17.2553144,66.2077543 16.8731191,66.3734872 16.5996923,66.6655385 L11.3790769,71.8427692 C11.0209773,68.4798546 12.1945981,65.1342387 14.5750769,62.732 C18.9399108,58.3791465 26.0069927,58.3888585 30.3598462,62.7536923 C34.7126997,67.1185261 34.7029877,74.185608 30.3381538,78.5384615 Z M34.2861538,62.4861538 L30.6129231,58.8273846 L66.9692308,22.5 L70.628,26.1587692 L34.2861538,62.4861538 Z M86.7670769,22.1384615 C83.1864889,25.6688512 77.6859177,26.3657783 73.3380001,23.8399371 C68.9900824,21.3140958 66.870801,16.1905583 68.1639932,11.3313489 C69.4571854,6.47213958 73.8428238,3.07977084 78.8710769,3.04923077 C79.2805251,3.02722741 79.6908595,3.02722741 80.1003077,3.04923077 L74.9230769,8.29876923 C74.6356816,8.57179435 74.4729599,8.95082341 74.4729599,9.34723077 C74.4729599,9.74363813 74.6356816,10.1226672 74.9230769,10.3956923 L82.6744615,18.1615385 C82.9478884,18.4535897 83.3300837,18.6193226 83.7301538,18.6193226 C84.130224,18.6193226 84.5124193,18.4535897 84.7858462,18.1615385 L89.9630769,12.9843077 C90.3283275,16.3610211 89.1546146,19.7228321 86.7670769,22.1384615 L86.7670769,22.1384615 Z" id="Shape"></path>
        </g>
    </g>
</svg>