<?xml version="1.0" encoding="UTF-8"?>
<svg width="124px" height="124px" viewBox="0 0 124 124" version="1.1" xmlns="http://www.w3.org/2000/svg" xmlns:xlink="http://www.w3.org/1999/xlink">
    <!-- Generator: Sketch 54.1 (76490) - https://sketchapp.com -->
    <title>quality</title>
    <desc>Created with Sketch.</desc>
    <g id="quality" stroke="none" stroke-width="1" fill="none" fill-rule="evenodd">
        <g id="insignia">
            <rect id="aux" x="0" y="0" width="124" height="124"></rect>
            <path d="M98.085785,45.8012695 L90.4319764,37.856018 L91.973877,26.9085998 C92.1211242,25.8664246 91.4154053,24.8952027 90.3785705,24.7128602 L79.5425414,22.8039855 L74.3843078,13.0414123 C73.8906859,12.1075744 72.7439881,11.73526 71.7964172,12.2006531 L61.9140625,17.0514221 L52.0309449,12.2006531 C51.083374,11.7344971 49.9374391,12.1075744 49.4438172,13.0414123 L44.2855836,22.8039855 L33.4495545,24.7128602 C32.4127197,24.8952027 31.7070008,25.8664246 31.854248,26.9085998 L33.3961486,37.856018 L25.7415771,45.8012695 C25.0129699,46.5581055 25.0129699,47.7551574 25.7415771,48.5119934 L33.3961486,56.4572449 L31.854248,67.4046631 C31.7070008,68.4468383 32.4127197,69.4180604 33.4495545,69.6011658 L43.8888551,71.4398498 C43.8888551,71.4398498 27.8160096,99.2787477 27.8007508,99.3046875 C27.0133973,100.668823 28.1730652,102.457916 29.7859191,102.21225 L40.6051637,100.564301 L44.5877074,110.757935 C44.8608398,111.45755 45.5108643,111.938202 46.2593078,111.994659 C46.3088988,111.998474 46.35849,112 46.4073182,112 C47.1008301,112 47.7478027,111.630737 48.097992,111.023437 L61.9140625,87.0938416 L75.7293701,111.023437 C76.0803223,111.630737 76.726532,112 77.4208068,112 C77.469635,112 77.5192262,111.998474 77.5688172,111.994659 C78.3172607,111.937439 78.9672852,111.456787 79.2404176,110.757935 L83.2229613,100.564301 C83.2229613,100.564301 94.0208436,102.208435 94.041443,102.21225 C95.6031799,102.450287 96.8193055,100.676453 96.0273742,99.3046875 L79.9392699,71.4390869 L90.3785705,69.6004027 C91.4154053,69.4180604 92.1203613,68.4468383 91.973877,67.4046631 L90.4319764,56.456482 L98.085785,48.5112305 C98.8151551,47.7551574 98.8151551,46.5581055 98.085785,45.8012695 Z M46.7468262,105.550873 L43.6744689,97.6872559 C43.3784484,96.929657 42.6506043,96.4451904 41.8563844,96.4451904 C41.7587281,96.4451904 41.6603088,96.4528199 41.5611268,96.4673156 L33.215332,97.7383729 L46.2326051,75.192749 C46.2326051,75.192749 49.4621277,81.3016053 49.471283,81.317627 C49.471283,81.317627 48.1109619,83.6690062 48.1094359,83.6720582 C46.8528748,85.8449098 50.2426148,87.7865906 51.4907836,85.6289979 L54.1152953,81.089508 L61.9140625,77.2618408 L62.8227234,77.7081604 L46.7468262,105.550873 Z M90.612793,97.7383729 L82.2662354,96.4673156 C81.3636779,96.3299865 80.4855348,96.8365783 80.1536561,97.6880188 L77.0812988,105.551636 L64.1693115,83.1875916 L66.3368225,79.4331664 L69.7097777,81.0887451 C69.7097777,81.0887451 72.328949,85.6183166 72.3358154,85.6289979 C73.5870361,87.7926941 76.9897461,85.8700867 75.7186891,83.6720582 C75.7186891,83.6720582 74.3751525,81.2878723 74.3835449,81.2718506 L77.5955199,75.192749 L90.612793,97.7383729 Z M86.9583129,54.4324035 C86.541748,54.8649902 86.3471984,55.4646605 86.4311219,56.0597535 L87.8425598,66.0809631 L77.9228211,67.8280945 C77.3292541,67.9326172 76.8165588,68.3056945 76.5350342,68.8389893 L71.8185426,77.7669066 C71.8078613,77.763092 71.7971801,77.7600402 71.7872619,77.7562256 C71.7872619,77.7562256 62.800598,73.3456727 62.7746582,73.3327027 C62.2711182,73.0855102 61.5898133,73.0694885 61.0534668,73.3327027 L52.041626,77.7562256 C52.0309449,77.7600402 52.0202637,77.763092 52.0103455,77.7669066 L47.2930908,68.8397521 C47.0115662,68.3064574 46.4996338,67.9333801 45.9053039,67.8280945 L35.9855652,66.0809631 L37.3970031,56.0597535 C37.4809266,55.4646605 37.286377,54.8649902 36.8698121,54.4324035 L29.8606873,47.1570129 L36.8698121,39.8808594 C37.286377,39.4482727 37.4809266,38.8486023 37.3970031,38.2535096 L35.9855652,28.2322998 L45.9053039,26.4851684 C46.4996338,26.3806457 47.0115662,26.0068055 47.2930908,25.4735107 L52.0118713,16.5425414 L61.0534668,20.9805604 C61.5959168,21.2468262 62.2322082,21.2468262 62.7746582,20.9805604 L71.8162537,16.5425414 L76.5350342,25.4735107 C76.8165588,26.0068055 77.3292541,26.3806457 77.9228211,26.4851684 L87.8425598,28.2322998 L86.4311219,38.2535096 C86.3471984,38.8486023 86.541748,39.4482727 86.9583129,39.8808594 L93.9674377,47.1570129 L86.9583129,54.4324035 Z" id="Shape" fill="#148CE9" fill-rule="nonzero"></path>
            <path d="M80.46875,45.2038879 C79.3899535,45.2038879 78.515625,46.0782166 78.515625,47.1570129 C78.515625,56.3107605 71.0678102,63.7585754 61.9140625,63.7585754 C52.759552,63.7585754 45.3125,56.3107605 45.3125,47.1570129 C45.3125,38.0025023 52.759552,30.5554504 61.9140625,30.5554504 C64.0571594,30.5554504 66.14151,30.9567566 68.1106566,31.7494508 C69.1108703,32.1522828 70.2484131,31.6678162 70.652008,30.6676025 C71.05484,29.666626 70.5703734,28.5290832 69.5693969,28.1262512 C67.1348572,27.145874 64.5591736,26.6492004 61.9140625,26.6492004 C50.6057738,26.6492004 41.40625,35.8487244 41.40625,47.1570129 C41.40625,58.4645387 50.6057738,67.6640625 61.9140625,67.6640625 C73.2223512,67.6640625 82.421875,58.4645387 82.421875,47.1570129 C82.421875,46.0782166 81.5467834,45.2038879 80.46875,45.2038879 Z" id="Path" fill="#148CE9" fill-rule="nonzero"></path>
            <path d="M56.6543578,43.4315797 C55.8914184,42.6686402 54.6554566,42.6686402 53.8917541,43.4315797 C53.1295777,44.1945191 53.1295777,45.4312439 53.8917541,46.1941834 C53.8917541,46.1941834 60.8062744,53.1079406 60.8253479,53.1277771 C61.541748,53.8441773 62.8692627,53.8457031 63.5879516,53.1277771 L78.6453246,38.0704041 C79.4075012,37.3074646 79.4075012,36.0707398 78.6453246,35.3085633 C77.8823852,34.5456238 76.6456604,34.5456238 75.8827209,35.3085633 L62.2070313,48.9842529 L56.6543578,43.4315797 Z" id="Path" fill="#148CE9" fill-rule="nonzero"></path>
            <path d="M79.8828125,91.4921875 C79.8828125,92.570984 79.008484,93.4453125 77.9296875,93.4453125 C76.850891,93.4453125 75.9765625,92.570984 75.9765625,91.4921875 C75.9765625,90.413391 76.850891,89.5390625 77.9296875,89.5390625 C79.008484,89.5390625 79.8828125,90.413391 79.8828125,91.4921875 Z" id="Path" fill="#148CE9" fill-rule="nonzero"></path>
            <path d="M47.8515625,91.4921875 C47.8515625,92.570984 46.977234,93.4453125 45.8984375,93.4453125 C44.819641,93.4453125 43.9453125,92.570984 43.9453125,91.4921875 C43.9453125,90.413391 44.819641,89.5390625 45.8984375,89.5390625 C46.977234,89.5390625 47.8515625,90.413391 47.8515625,91.4921875 Z" id="Path" fill="#148CE9" fill-rule="nonzero"></path>
        </g>
    </g>
</svg>