<?xml version="1.0" encoding="UTF-8"?>
<svg width="100px" height="100px" viewBox="0 0 100 100" version="1.1" xmlns="http://www.w3.org/2000/svg" xmlns:xlink="http://www.w3.org/1999/xlink">
    <!-- Generator: Sketch 55.2 (78181) - https://sketchapp.com -->
    <title>list</title>
    <desc>Created with Sketch.</desc>
    <g id="list" stroke="none" stroke-width="1" fill="none" fill-rule="evenodd">
        <g transform="translate(17.000000, 5.000000)" fill="#D8D8D8" fill-rule="nonzero">
            <path d="M63.6547779,0 L1.79959108,0 C0.805660641,0 0,0.802617187 0,1.79279297 L0,88.207207 C0,89.1973828 0.805660641,90 1.79959108,90 L48.8338688,90 C49.3111601,90 49.7688656,89.8110352 50.1064103,89.4749414 L64.9274959,74.709668 C65.2648641,74.3735742 65.4545455,73.9175977 65.4545455,73.4419336 L65.4545455,1.79279297 C65.4545455,0.802617187 64.6487084,0 63.6547779,0 Z M50.6301073,83.8822852 L50.6223436,75.2236523 L59.3136328,75.2315625 L50.6301073,83.8822852 Z M61.8553633,71.6482617 L48.8225761,71.6364844 C48.8220468,71.6364844 48.8215174,71.6364844 48.8209881,71.6364844 C48.3436968,71.6364844 47.8859912,71.8254492 47.5484466,72.161543 C47.210549,72.4981641 47.0208676,72.9548438 47.021397,73.4310352 L47.0330425,86.4144141 L3.59918216,86.4144141 L3.59918216,3.58558594 L61.8553633,3.58558594 L61.8553633,71.6482617 Z" id="Shape"></path>
            <path d="M21.6766503,15.1253955 C20.9682535,14.4386922 19.8196655,14.4386922 19.1112688,15.1255679 L13.7729489,20.3004109 L12.4473951,19.0152775 C11.7389984,18.3285742 10.5904103,18.3285742 9.8820136,19.0152775 C9.17361686,19.7019808 9.17343901,20.8153953 9.8820136,21.5020986 L12.4900803,24.0304702 C12.8301392,24.3601153 13.2916731,24.5454545 13.7727711,24.5454545 C14.253869,24.5454545 14.7152251,24.3601153 15.0554618,24.0304702 L21.6764724,17.6122166 C22.3848692,16.9256857 22.3848692,15.8120988 21.6766503,15.1253955 Z" id="Path"></path>
            <path d="M53.7791292,18.7012987 L53.1689227,18.7012987 C52.207711,18.7012987 51.4285714,19.4862114 51.4285714,20.4545455 C51.4285714,21.4228795 52.207711,22.2077922 53.1689227,22.2077922 L53.7791292,22.2077922 C54.740341,22.2077922 55.5194805,21.4228795 55.5194805,20.4545455 C55.5194805,19.4862114 54.740341,18.7012987 53.7791292,18.7012987 Z" id="Path"></path>
            <path d="M47.8596791,18.7012987 L27.5299313,18.7012987 C26.5271338,18.7012987 25.7142857,19.4862114 25.7142857,20.4545455 C25.7142857,21.4228795 26.5271338,22.2077922 27.5299313,22.2077922 L47.8596791,22.2077922 C48.8624766,22.2077922 49.6753247,21.4228795 49.6753247,20.4545455 C49.6753247,19.4862114 48.8624766,18.7012987 47.8596791,18.7012987 Z" id="Path"></path>
            <path d="M21.6766503,32.6578631 C20.9682535,31.9711598 19.8196655,31.9711598 19.1112688,32.6580355 L13.7729489,37.8328785 L12.4473951,36.547745 C11.7389984,35.8610417 10.5904103,35.8610417 9.8820136,36.547745 C9.17361686,37.2344483 9.17343901,38.3478628 9.8820136,39.0345661 L12.4900803,41.5629377 C12.8301392,41.8925829 13.2916731,42.0779221 13.7727711,42.0779221 C14.253869,42.0779221 14.7152251,41.8925829 15.0554618,41.5629377 L21.6764724,35.1446842 C22.3848692,34.4581533 22.3848692,33.3447388 21.6766503,32.6578631 Z" id="Path"></path>
            <path d="M53.7398341,36.2337662 L27.4939321,36.2337662 C26.5110173,36.2337662 25.7142857,37.0186789 25.7142857,37.987013 C25.7142857,38.955347 26.5110173,39.7402597 27.4939321,39.7402597 L53.7398341,39.7402597 C54.7227489,39.7402597 55.5194805,38.955347 55.5194805,37.987013 C55.5194805,37.0186789 54.7227489,36.2337662 53.7398341,36.2337662 Z" id="Path"></path>
            <path d="M21.6766503,49.605915 C20.9682535,48.9192117 19.8196655,48.9192117 19.1112688,49.6060874 L13.7729489,54.7809304 L12.4473951,53.495797 C11.7389984,52.8089213 10.5904103,52.8090937 9.8820136,53.495797 C9.17361686,54.1825003 9.17343901,55.2959148 9.8820136,55.9826181 L12.4900803,58.5109897 C12.8301392,58.8406348 13.2916731,59.025974 13.7727711,59.025974 C14.253869,59.025974 14.7152251,58.8406348 15.0554618,58.5109897 L21.6764724,52.0927361 C22.3848692,51.4062052 22.3848692,50.2927907 21.6766503,49.605915 Z" id="Path"></path>
            <path d="M53.7398237,53.1818182 L27.4939425,53.1818182 C26.511022,53.1818182 25.7142857,53.9667309 25.7142857,54.9350649 C25.7142857,55.903399 26.511022,56.6883117 27.4939425,56.6883117 L53.7399982,56.6883117 C54.7227443,56.6883117 55.5194805,55.903399 55.5194805,54.9350649 C55.5194805,53.9669028 54.7227443,53.1818182 53.7398237,53.1818182 Z" id="Path"></path>
        </g>
    </g>
</svg>