<?xml version="1.0" encoding="UTF-8"?>
<svg width="22px" height="18px" viewBox="0 0 22 18" version="1.1" xmlns="http://www.w3.org/2000/svg" xmlns:xlink="http://www.w3.org/1999/xlink">
    <!-- Generator: Sketch 55.2 (78181) - https://sketchapp.com -->
    <title>Icons / twitter</title>
    <desc>Created with Sketch.</desc>
    <defs>
        <path d="M22,2.12968323 C21.1902765,2.49108161 20.3214548,2.73617786 19.4085971,2.84560035 C20.3406868,2.28338889 21.0541782,1.39164264 21.3923389,0.332322844 C20.5180172,0.852966795 19.5529274,1.23102114 18.5246054,1.43596201 C17.7011498,0.55113162 16.5298636,0 15.2307112,0 C12.7383084,0 10.7174325,2.03554079 10.7174325,4.5446543 C10.7174325,4.90051275 10.7572986,5.24807943 10.8342987,5.58043849 C7.08401158,5.39070524 3.75851921,3.58088908 1.53281296,0.830807111 C1.14375023,1.50102893 0.922419808,2.28197675 0.922419808,3.11560813 C0.922419808,4.69282003 1.71977732,6.08446267 2.92956361,6.89865002 C2.18993822,6.87373848 1.4943129,6.66879761 0.885321708,6.32814678 L0.885321708,6.38492192 C0.885321708,8.58662413 2.44153667,10.4241399 4.50501063,10.8423496 C4.12694792,10.9448201 3.72828714,11.0015952 3.31585836,11.0015952 C3.02442978,11.0015952 2.74259925,10.9725197 2.46626874,10.9171204 C3.04089386,12.7241848 4.707109,14.0382685 6.68125275,14.0742961 C5.13740382,15.2928615 3.19076012,16.0170704 1.07642006,16.0170704 C0.712125347,16.0170704 0.353294695,15.9949107 0,15.9547553 C1.9975098,17.2467156 4.36894832,18 6.91771719,18 C15.219783,18 19.7578297,11.0736142 19.7578297,5.06671039 L19.7426957,4.47821145 C20.6293834,3.84119295 21.3964729,3.0408373 22,2.12968323 Z" id="path-1"></path>
    </defs>
    <g id="Canada-condos" stroke="none" stroke-width="1" fill="none" fill-rule="evenodd" opacity="0.400000006">
        <g id="Canada-homepage---signup" transform="translate(-1258.000000, -2779.000000)">
            <g id="footer" transform="translate(0.000000, 2618.000000)">
                <g id="Icons-/-twitter" transform="translate(1258.000000, 161.000000)">
                    <g>
                        <mask id="mask-2" fill="white">
                            <use xlink:href="#path-1"></use>
                        </mask>
                        <use id="icon" fill="#4A4A4A" xlink:href="#path-1"></use>
                        <g id="Colors-/-White" mask="url(#mask-2)" fill="#FFFFFF">
                            <g transform="translate(-3.000000, -5.000000)" id="Color">
                                <rect x="0" y="0" width="28" height="28"></rect>
                            </g>
                        </g>
                    </g>
                </g>
            </g>
        </g>
    </g>
</svg>